<svg width="48" height="37" viewBox="0 0 48 37" fill="none" xmlns="http://www.w3.org/2000/svg">
<path fill-rule="evenodd" clip-rule="evenodd" d="M21.7726 0.822981C22.0149 0.822981 22.2113 1.01935 22.2113 1.26161V9.5956C22.2113 9.83783 22.0149 10.0342 21.7726 10.0342H13.4386C13.1964 10.0342 13 9.83783 13 9.5956V1.26161C13 1.01935 13.1964 0.822981 13.4386 0.822981H21.7726ZM20.3471 2.68716H14.8642V8.17005H20.3471V2.68716ZM33.8715 5.09102C34.0428 5.26231 34.0428 5.54004 33.8715 5.71133L28.909 10.6739C28.7377 10.8452 28.46 10.8452 28.2887 10.6739L23.3261 5.71133C23.1548 5.54004 23.1548 5.26231 23.3261 5.09102L28.2887 0.128464C28.46 -0.0428213 28.7377 -0.0428213 28.909 0.128464L33.8715 5.09102ZM31.5453 5.40116L28.5988 2.45469L25.6523 5.40119L28.5988 8.34769L31.5453 5.40116ZM21.7726 11.7888C22.0149 11.7888 22.2113 11.9851 22.2113 12.2274V20.5614C22.2113 20.8036 22.0149 21 21.7726 21H13.4386C13.1964 21 13 20.8036 13 20.5614V12.2274C13 11.9851 13.1964 11.7888 13.4386 11.7888H21.7726ZM20.3471 13.6529H14.8642V19.1358H20.3471V13.6529ZM32.7384 11.7888C32.9807 11.7888 33.177 11.9851 33.177 12.2274V20.5614C33.177 20.8036 32.9807 21 32.7384 21H24.4044C24.1622 21 23.9658 20.8036 23.9658 20.5614V12.2274C23.9658 11.9851 24.1622 11.7888 24.4044 11.7888H32.7384ZM31.3129 13.6529H25.83V19.1358H31.3129V13.6529Z" fill="black"/>
<path d="M3.08544 30.859C3.08544 30.247 3.22644 29.698 3.50844 29.212C3.79644 28.726 4.18344 28.348 4.66944 28.078C5.16144 27.802 5.69844 27.664 6.28044 27.664C6.94644 27.664 7.53744 27.829 8.05344 28.159C8.57544 28.483 8.95344 28.945 9.18744 29.545H7.95444C7.79244 29.215 7.56744 28.969 7.27944 28.807C6.99144 28.645 6.65844 28.564 6.28044 28.564C5.86644 28.564 5.49744 28.657 5.17344 28.843C4.84944 29.029 4.59444 29.296 4.40844 29.644C4.22844 29.992 4.13844 30.397 4.13844 30.859C4.13844 31.321 4.22844 31.726 4.40844 32.074C4.59444 32.422 4.84944 32.692 5.17344 32.884C5.49744 33.07 5.86644 33.163 6.28044 33.163C6.65844 33.163 6.99144 33.082 7.27944 32.92C7.56744 32.758 7.79244 32.512 7.95444 32.182H9.18744C8.95344 32.782 8.57544 33.244 8.05344 33.568C7.53744 33.892 6.94644 34.054 6.28044 34.054C5.69244 34.054 5.15544 33.919 4.66944 33.649C4.18344 33.373 3.79644 32.992 3.50844 32.506C3.22644 32.02 3.08544 31.471 3.08544 30.859ZM10.0464 31.498C10.0464 31 10.1484 30.559 10.3524 30.175C10.5624 29.791 10.8444 29.494 11.1984 29.284C11.5584 29.068 11.9544 28.96 12.3864 28.96C12.7764 28.96 13.1154 29.038 13.4034 29.194C13.6974 29.344 13.9314 29.533 14.1054 29.761V29.041H15.1404V34H14.1054V33.262C13.9314 33.496 13.6944 33.691 13.3944 33.847C13.0944 34.003 12.7524 34.081 12.3684 34.081C11.9424 34.081 11.5524 33.973 11.1984 33.757C10.8444 33.535 10.5624 33.229 10.3524 32.839C10.1484 32.443 10.0464 31.996 10.0464 31.498ZM14.1054 31.516C14.1054 31.174 14.0334 30.877 13.8894 30.625C13.7514 30.373 13.5684 30.181 13.3404 30.049C13.1124 29.917 12.8664 29.851 12.6024 29.851C12.3384 29.851 12.0924 29.917 11.8644 30.049C11.6364 30.175 11.4504 30.364 11.3064 30.616C11.1684 30.862 11.0994 31.156 11.0994 31.498C11.0994 31.84 11.1684 32.14 11.3064 32.398C11.4504 32.656 11.6364 32.854 11.8644 32.992C12.0984 33.124 12.3444 33.19 12.6024 33.19C12.8664 33.19 13.1124 33.124 13.3404 32.992C13.5684 32.86 13.7514 32.668 13.8894 32.416C14.0334 32.158 14.1054 31.858 14.1054 31.516ZM17.685 29.878V32.623C17.685 32.809 17.727 32.944 17.811 33.028C17.901 33.106 18.051 33.145 18.261 33.145H18.891V34H18.081C17.619 34 17.265 33.892 17.019 33.676C16.773 33.46 16.65 33.109 16.65 32.623V29.878H16.065V29.041H16.65V27.808H17.685V29.041H18.891V29.878H17.685ZM24.3816 31.399C24.3816 31.585 24.3696 31.753 24.3456 31.903H20.5566C20.5866 32.299 20.7336 32.617 20.9976 32.857C21.2616 33.097 21.5856 33.217 21.9696 33.217C22.5216 33.217 22.9116 32.986 23.1396 32.524H24.2466C24.0966 32.98 23.8236 33.355 23.4276 33.649C23.0376 33.937 22.5516 34.081 21.9696 34.081C21.4956 34.081 21.0696 33.976 20.6916 33.766C20.3196 33.55 20.0256 33.25 19.8096 32.866C19.5996 32.476 19.4946 32.026 19.4946 31.516C19.4946 31.006 19.5966 30.559 19.8006 30.175C20.0106 29.785 20.3016 29.485 20.6736 29.275C21.0516 29.065 21.4836 28.96 21.9696 28.96C22.4376 28.96 22.8546 29.062 23.2206 29.266C23.5866 29.47 23.8716 29.758 24.0756 30.13C24.2796 30.496 24.3816 30.919 24.3816 31.399ZM23.3106 31.075C23.3046 30.697 23.1696 30.394 22.9056 30.166C22.6416 29.938 22.3146 29.824 21.9246 29.824C21.5706 29.824 21.2676 29.938 21.0156 30.166C20.7636 30.388 20.6136 30.691 20.5656 31.075H23.3106ZM27.3893 28.96C27.7733 28.96 28.1123 29.038 28.4063 29.194C28.7063 29.344 28.9403 29.533 29.1083 29.761V29.041H30.1433V34.081C30.1433 34.537 30.0473 34.942 29.8553 35.296C29.6633 35.656 29.3843 35.938 29.0183 36.142C28.6583 36.346 28.2263 36.448 27.7223 36.448C27.0503 36.448 26.4923 36.289 26.0483 35.971C25.6043 35.659 25.3523 35.233 25.2923 34.693H26.3093C26.3873 34.951 26.5523 35.158 26.8043 35.314C27.0623 35.476 27.3683 35.557 27.7223 35.557C28.1363 35.557 28.4693 35.431 28.7213 35.179C28.9793 34.927 29.1083 34.561 29.1083 34.081V33.253C28.9343 33.487 28.6973 33.685 28.3973 33.847C28.1033 34.003 27.7673 34.081 27.3893 34.081C26.9573 34.081 26.5613 33.973 26.2013 33.757C25.8473 33.535 25.5653 33.229 25.3553 32.839C25.1513 32.443 25.0493 31.996 25.0493 31.498C25.0493 31 25.1513 30.559 25.3553 30.175C25.5653 29.791 25.8473 29.494 26.2013 29.284C26.5613 29.068 26.9573 28.96 27.3893 28.96ZM29.1083 31.516C29.1083 31.174 29.0363 30.877 28.8923 30.625C28.7543 30.373 28.5713 30.181 28.3433 30.049C28.1153 29.917 27.8693 29.851 27.6053 29.851C27.3413 29.851 27.0953 29.917 26.8673 30.049C26.6393 30.175 26.4533 30.364 26.3093 30.616C26.1713 30.862 26.1023 31.156 26.1023 31.498C26.1023 31.84 26.1713 32.14 26.3093 32.398C26.4533 32.656 26.6393 32.854 26.8673 32.992C27.1013 33.124 27.3473 33.19 27.6053 33.19C27.8693 33.19 28.1153 33.124 28.3433 32.992C28.5713 32.86 28.7543 32.668 28.8923 32.416C29.0363 32.158 29.1083 31.858 29.1083 31.516ZM33.6419 34.081C33.1739 34.081 32.7509 33.976 32.3729 33.766C31.9949 33.55 31.6979 33.25 31.4819 32.866C31.2659 32.476 31.1579 32.026 31.1579 31.516C31.1579 31.012 31.2689 30.565 31.4909 30.175C31.7129 29.785 32.0159 29.485 32.3999 29.275C32.7839 29.065 33.2129 28.96 33.6869 28.96C34.1609 28.96 34.5899 29.065 34.9739 29.275C35.3579 29.485 35.6609 29.785 35.8829 30.175C36.1049 30.565 36.2159 31.012 36.2159 31.516C36.2159 32.02 36.1019 32.467 35.8739 32.857C35.6459 33.247 35.3339 33.55 34.9379 33.766C34.5479 33.976 34.1159 34.081 33.6419 34.081ZM33.6419 33.19C33.9059 33.19 34.1519 33.127 34.3799 33.001C34.6139 32.875 34.8029 32.686 34.9469 32.434C35.0909 32.182 35.1629 31.876 35.1629 31.516C35.1629 31.156 35.0939 30.853 34.9559 30.607C34.8179 30.355 34.6349 30.166 34.4069 30.04C34.1789 29.914 33.9329 29.851 33.6689 29.851C33.4049 29.851 33.1589 29.914 32.9309 30.04C32.7089 30.166 32.5319 30.355 32.3999 30.607C32.2679 30.853 32.2019 31.156 32.2019 31.516C32.2019 32.05 32.3369 32.464 32.6069 32.758C32.8829 33.046 33.2279 33.19 33.6419 33.19ZM38.2562 29.761C38.4062 29.509 38.6042 29.314 38.8502 29.176C39.1022 29.032 39.3992 28.96 39.7412 28.96V30.022H39.4802C39.0782 30.022 38.7722 30.124 38.5622 30.328C38.3582 30.532 38.2562 30.886 38.2562 31.39V34H37.2302V29.041H38.2562V29.761ZM45.1483 29.041L42.1063 36.331H41.0443L42.0523 33.919L40.0993 29.041H41.2423L42.6373 32.821L44.0863 29.041H45.1483Z" fill="black"/>
</svg>
