<svg width="24" height="23" viewBox="0 0 24 23" fill="none" xmlns="http://www.w3.org/2000/svg">
<path d="M23.9999 19.4737C23.9999 19.7138 23.9051 19.9441 23.7363 20.1139C23.5675 20.2837 23.3386 20.3791 23.0999 20.3791H16.9799C16.7795 21.131 16.338 21.7954 15.7241 22.2693C15.1101 22.7432 14.3578 23 13.584 23C12.8101 23 12.0578 22.7432 11.4439 22.2693C10.8299 21.7954 10.3884 21.131 10.188 20.3791H0.899997C0.661303 20.3791 0.432385 20.2837 0.263603 20.1139C0.0948207 19.9441 0 19.7138 0 19.4737C0 19.2335 0.0948207 19.0032 0.263603 18.8334C0.432385 18.6636 0.661303 18.5682 0.899997 18.5682H10.188C10.3884 17.8163 10.8299 17.1519 11.4439 16.678C12.0578 16.2042 12.8101 15.9473 13.584 15.9473C14.3578 15.9473 15.1101 16.2042 15.7241 16.678C16.338 17.1519 16.7795 17.8163 16.9799 18.5682H23.0999C23.3386 18.5682 23.5675 18.6636 23.7363 18.8334C23.9051 19.0032 23.9999 19.2335 23.9999 19.4737ZM23.9999 3.52634C23.9999 3.76647 23.9051 3.99677 23.7363 4.16656C23.5675 4.33636 23.3386 4.43175 23.0999 4.43175H20.1599C19.9595 5.1837 19.518 5.84811 18.904 6.32197C18.29 6.79584 17.5378 7.05268 16.7639 7.05268C15.9901 7.05268 15.2378 6.79584 14.6238 6.32197C14.0098 5.84811 13.5684 5.1837 13.368 4.43175H0.899997C0.781808 4.43175 0.664776 4.40833 0.555583 4.36283C0.44639 4.31733 0.347175 4.25064 0.263603 4.16656C0.18003 4.08249 0.113737 3.98268 0.0685081 3.87283C0.023279 3.76298 0 3.64524 0 3.52634C0 3.40744 0.023279 3.28971 0.0685081 3.17986C0.113737 3.07001 0.18003 2.97019 0.263603 2.88612C0.347175 2.80204 0.44639 2.73535 0.555583 2.68985C0.664776 2.64435 0.781808 2.62093 0.899997 2.62093H13.368C13.5684 1.86898 14.0098 1.20457 14.6238 0.730708C15.2378 0.256843 15.9901 0 16.7639 0C17.5378 0 18.29 0.256843 18.904 0.730708C19.518 1.20457 19.9595 1.86898 20.1599 2.62093H23.0999C23.2186 2.61931 23.3363 2.64162 23.4462 2.68654C23.5562 2.73147 23.656 2.7981 23.7399 2.8825C23.8238 2.9669 23.89 3.06736 23.9347 3.17794C23.9794 3.28853 24.0015 3.40699 23.9999 3.52634ZM23.9999 11.494C24.0015 11.6133 23.9794 11.7318 23.9347 11.8424C23.89 11.9529 23.8238 12.0534 23.7399 12.1378C23.656 12.2222 23.5562 12.2888 23.4462 12.3338C23.3363 12.3787 23.2186 12.401 23.0999 12.3994H9.05997C8.85952 13.1513 8.41807 13.8157 7.80408 14.2896C7.19008 14.7635 6.43784 15.0203 5.66398 15.0203C4.89012 15.0203 4.13788 14.7635 3.52388 14.2896C2.90989 13.8157 2.46844 13.1513 2.26799 12.3994H0.899997C0.661303 12.3994 0.432385 12.304 0.263603 12.1342C0.0948207 11.9644 0 11.7341 0 11.494C0 11.2538 0.0948207 11.0235 0.263603 10.8537C0.432385 10.6839 0.661303 10.5886 0.899997 10.5886H2.26799C2.46844 9.83661 2.90989 9.1722 3.52388 8.69833C4.13788 8.22447 4.89012 7.96762 5.66398 7.96762C6.43784 7.96762 7.19008 8.22447 7.80408 8.69833C8.41807 9.1722 8.85952 9.83661 9.05997 10.5886H23.0999C23.3386 10.5886 23.5675 10.6839 23.7363 10.8537C23.9051 11.0235 23.9999 11.2538 23.9999 11.494Z" fill="#FCF8E8"/>
</svg>
