<svg width="23" height="23" viewBox="0 0 23 23" fill="none" xmlns="http://www.w3.org/2000/svg">
<path d="M16 8.5C16 9.42826 15.5786 10.3185 14.8284 10.9749C14.0783 11.6313 13.0609 12 12 12C10.9391 12 9.92172 11.6313 9.17157 10.9749C8.42143 10.3185 8 9.42826 8 8.5C8 7.57174 8.42143 6.6815 9.17157 6.02513C9.92172 5.36875 10.9391 5 12 5C13.0609 5 14.0783 5.36875 14.8284 6.02513C15.5786 6.6815 16 7.57174 16 8.5Z" fill="#FCF8E8"/>
<path fill-rule="evenodd" clip-rule="evenodd" d="M11.0308 22.9908C4.89727 22.7447 0 17.6939 0 11.5C0 5.14855 5.14855 0 11.5 0C17.8514 0 23 5.14855 23 11.5C23 17.8514 17.8514 23 11.5 23H11.3425C11.2382 23 11.1343 22.9969 11.0308 22.9908ZM4.12045 18.7565C4.03447 18.5096 4.0052 18.2465 4.03482 17.9867C4.06444 17.7269 4.15219 17.4771 4.29156 17.2559C4.43092 17.0347 4.61832 16.8477 4.83985 16.7088C5.06137 16.5699 5.31133 16.4827 5.57118 16.4536C10.0539 15.9574 12.9737 16.0022 17.4346 16.464C17.6948 16.4911 17.9453 16.5772 18.1672 16.7158C18.3891 16.8543 18.5764 17.0417 18.715 17.2636C18.8535 17.4855 18.9395 17.7361 18.9665 17.9963C18.9936 18.2565 18.9609 18.5195 18.8709 18.7651C20.7829 16.8308 21.8536 14.2197 21.85 11.5C21.85 5.78393 17.2161 1.15 11.5 1.15C5.78393 1.15 1.15 5.78393 1.15 11.5C1.15 14.3267 2.28333 16.8889 4.12045 18.7565Z" fill="#FCF8E8"/>
</svg>
