<svg width="23" height="23" viewBox="0 0 23 23" fill="none" xmlns="http://www.w3.org/2000/svg">
<path d="M22 11.2241V20.2745C22 20.923 21.5301 21.4487 20.95 21.4487H2.05C1.46987 21.4487 1 20.923 1 20.2745V11.2241L11.5 18.2199L22 11.2241Z" stroke="#FCF8E8" stroke-width="2" stroke-linejoin="round"/>
<path d="M1 11.1083L6.25 7.39941M22 11.1083L16.75 7.39941" stroke="#FCF8E8" stroke-width="2" stroke-linecap="round" stroke-linejoin="round"/>
<path d="M16.75 1H6.25V14.1386C6.24999 14.3179 6.29368 14.4944 6.37712 14.652C6.46055 14.8096 6.58108 14.9434 6.72775 15.0411L10.9277 17.8394C11.0981 17.9529 11.2969 18.0133 11.5 18.0133C11.7031 18.0133 11.9019 17.9529 12.0722 17.8394L16.2722 15.0411C16.4189 14.9434 16.5394 14.8096 16.6229 14.652C16.7063 14.4944 16.75 14.3179 16.75 14.1386V1Z" stroke="#FCF8E8" stroke-width="2" stroke-linejoin="round"/>
<path d="M9.3999 5.3042H11.4999M9.3999 8.53302H13.5999" stroke="#FCF8E8" stroke-width="2" stroke-linecap="round" stroke-linejoin="round"/>
</svg>
