<svg width="23" height="22" viewBox="0 0 23 22" fill="none" xmlns="http://www.w3.org/2000/svg">
<path d="M4.75122 17.2647L9.99303 17.2468L21.434 5.91515C21.883 5.46615 22.1301 4.86987 22.1301 4.23558C22.1301 3.60129 21.883 3.00501 21.434 2.55602L19.5501 0.672152C18.6522 -0.225832 17.0854 -0.221081 16.1946 0.668588L4.75122 12.0027V17.2647ZM17.8706 2.35172L19.758 4.23202L17.8611 6.11113L15.9772 4.22845L17.8706 2.35172ZM7.12684 12.9933L14.2893 5.89852L16.1732 7.78238L9.01189 14.8748L7.12684 14.8807V12.9933Z" fill="#FCF8E8" fill-opacity="0.81"/>
<path d="M2.37562 21.9997H19.005C20.3151 21.9997 21.3806 20.9343 21.3806 19.6241V9.32816L19.005 11.7038V19.6241H6.12672C6.09584 19.6241 6.06377 19.636 6.03289 19.636C5.99369 19.636 5.95449 19.6253 5.9141 19.6241H2.37562V2.99476H10.5086L12.8842 0.619141H2.37562C1.06547 0.619141 0 1.68461 0 2.99476V19.6241C0 20.9343 1.06547 21.9997 2.37562 21.9997Z" fill="#FCF8E8" fill-opacity="0.81"/>
</svg>
