<svg width="15" height="21" viewBox="0 0 15 21" fill="none" xmlns="http://www.w3.org/2000/svg">
<path fill-rule="evenodd" clip-rule="evenodd" d="M3.75 1.59391e-06C3.63224 -5.56591e-06 3.51613 0.0277178 3.41107 0.0809272C3.30602 0.134137 3.21497 0.211337 3.1453 0.306277C3.07563 0.401218 3.02929 0.51123 3.01004 0.627408C2.99079 0.743586 2.99917 0.862664 3.0345 0.975002L3.1995 1.5H0.75C0.551088 1.5 0.360322 1.57902 0.21967 1.71967C0.0790178 1.86032 0 2.05109 0 2.25V20.25C0 20.4489 0.0790178 20.6397 0.21967 20.7803C0.360322 20.921 0.551088 21 0.75 21H14.25C14.4489 21 14.6397 20.921 14.7803 20.7803C14.921 20.6397 15 20.4489 15 20.25V2.25C15 2.05109 14.921 1.86032 14.7803 1.71967C14.6397 1.57902 14.4489 1.5 14.25 1.5H11.802L11.967 0.975002C12.0024 0.862543 12.0107 0.743331 11.9914 0.627038C11.9721 0.510744 11.9256 0.400645 11.8558 0.305672C11.7859 0.210699 11.6947 0.133527 11.5894 0.0804181C11.4842 0.0273092 11.3679 -0.00024143 11.25 1.59391e-06H3.75ZM4.77 1.5H10.23L9.7605 3H5.2395L4.77 1.5ZM12 9H3V7.5H12V9ZM12 12.75H3V11.25H12V12.75ZM3 16.5H9V15H3V16.5Z" fill="black" fill-opacity="0.5"/>
</svg>
