<svg width="21" height="21" viewBox="0 0 21 21" fill="none" xmlns="http://www.w3.org/2000/svg">
<path fill-rule="evenodd" clip-rule="evenodd" d="M8.77263 0.822981C9.01489 0.822981 9.21126 1.01935 9.21126 1.26161V9.5956C9.21126 9.83783 9.01489 10.0342 8.77263 10.0342H0.438631C0.19637 10.0342 0 9.83783 0 9.5956V1.26161C0 1.01935 0.19637 0.822981 0.438631 0.822981H8.77263ZM7.34708 2.68716H1.86418V8.17005H7.34708V2.68716ZM20.8715 5.09102C21.0428 5.26231 21.0428 5.54004 20.8715 5.71133L15.909 10.6739C15.7377 10.8452 15.46 10.8452 15.2887 10.6739L10.3261 5.71133C10.1548 5.54004 10.1548 5.26231 10.3261 5.09102L15.2887 0.128464C15.46 -0.0428213 15.7377 -0.0428213 15.909 0.128464L20.8715 5.09102ZM18.5453 5.40116L15.5988 2.45469L12.6523 5.40119L15.5988 8.34769L18.5453 5.40116ZM8.77263 11.7888C9.01489 11.7888 9.21126 11.9851 9.21126 12.2274V20.5614C9.21126 20.8036 9.01489 21 8.77263 21H0.438631C0.19637 21 0 20.8036 0 20.5614V12.2274C0 11.9851 0.19637 11.7888 0.438631 11.7888H8.77263ZM7.34708 13.6529H1.86418V19.1358H7.34708V13.6529ZM19.7384 11.7888C19.9807 11.7888 20.177 11.9851 20.177 12.2274V20.5614C20.177 20.8036 19.9807 21 19.7384 21H11.4044C11.1622 21 10.9658 20.8036 10.9658 20.5614V12.2274C10.9658 11.9851 11.1622 11.7888 11.4044 11.7888H19.7384ZM18.3129 13.6529H12.83V19.1358H18.3129V13.6529Z" fill="black" fill-opacity="0.5"/>
</svg>
